# xmcd CD database file
#
# Track frame offsets:
#	150
#	17705
#	36725
#	48890
#	82827
#	94295
#	112565
#	129175
#	147535
#	166622
#	179990
#	217505
#	230915
#	246310
#	261150
#
# Disc length: 3712 seconds
#
# Revision: 0
# Processed by: cddbd v1.5PL3 Copyright (c) Steve Scherf et al.
# Submitted via: ACXtractor (MTCDDB.DLL V2003.12.21)
#
DISCID=c90e7e0f
DTITLE=Various Artist - The Total Blues Collection
DYEAR=1980
DGENRE=Blues
TTITLE0=I'd rather go blind (jordon/foster) - Hennie Dolsma
TTITLE1=Red House (hendrix) - Ronald Abrams Band
TTITLE2=Dust my blues (james) - Rob Harpenau
TTITLE3=Since I've been loving you too long (page,plant,jones) - Cees Bergman
TTITLE4=Miss Celie's Blues (jones) - Justine Palmelay
TTITLE5=Need you love so bad (mertis jun) - Ruud van den Nieuwendijk
TTITLE6=All your love (rush/dixon) - Rob Harpenau
TTITLE7=For miss Caulker (burdon) - Fred van Vugt
TTITLE8=You don't love me (cobb) - Ruud van den Nieuwendijk
TTITLE9=The Supernatura (green) Cat Music
TTITLE10=Hoochy Coochy Man (waters) - Ronald Abrams Band
TTITLE11=Hit the road (f.fabrizzi/g.lottoni) - Cees Bergman
TTITLE12=Let it roll (e.wilson) - Cees Bergman
TTITLE13=Hide away (king thompson) - Ruud van den Nieuwendijk
TTITLE14=Leave me crazy woman (q.peep/g/grazelli) - Fred van Vugt
EXTD=ID3G:   0 YEAR: 1980
EXTT0=
EXTT1=
EXTT2=
EXTT3=
EXTT4=
EXTT5=
EXTT6=
EXTT7=
EXTT8=
EXTT9=
EXTT10=
EXTT11=
EXTT12=
EXTT13=
EXTT14=
PLAYORDER=
